<svg xmlns="http://www.w3.org/2000/svg" width="351.814" height="311.409" viewBox="0 0 351.814 311.409">
  <g id="Group_17" data-name="Group 17" transform="translate(-10537.939 -105.493) rotate(22)" opacity="0.31">
    <circle id="Ellipse_12" data-name="Ellipse 12" cx="6" cy="6" r="6" transform="translate(9944 -3901)" fill="#fff"/>
    <circle id="Ellipse_13" data-name="Ellipse 13" cx="6" cy="6" r="6" transform="translate(9933 -3876)" fill="#fff"/>
    <circle id="Ellipse_14" data-name="Ellipse 14" cx="6.5" cy="6.5" r="6.5" transform="translate(9911 -3878)" fill="#fff"/>
    <circle id="Ellipse_15" data-name="Ellipse 15" cx="6" cy="6" r="6" transform="translate(9901 -3859)" fill="#fff"/>
    <ellipse id="Ellipse_16" data-name="Ellipse 16" cx="6" cy="6.5" rx="6" ry="6.5" transform="translate(9924 -3858)" fill="#fff"/>
    <ellipse id="Ellipse_17" data-name="Ellipse 17" cx="6.5" cy="6" rx="6.5" ry="6" transform="translate(9945 -3859)" fill="#fff"/>
    <ellipse id="Ellipse_18" data-name="Ellipse 18" cx="6.5" cy="6" rx="6.5" ry="6" transform="translate(9956 -3879)" fill="#fff"/>
    <circle id="Ellipse_19" data-name="Ellipse 19" cx="6" cy="6" r="6" transform="translate(9969 -3898)" fill="#fff"/>
    <g id="Component_59_2" data-name="Component 59 – 2" transform="translate(9979 -3918)">
      <circle id="Ellipse_20" data-name="Ellipse 20" cx="6" cy="6" r="6" fill="#fff"/>
    </g>
    <g id="Component_60_2" data-name="Component 60 – 2" transform="translate(10001 -3918)">
      <circle id="Ellipse_21" data-name="Ellipse 21" cx="6" cy="6" r="6" fill="#fff"/>
    </g>
    <circle id="Ellipse_22" data-name="Ellipse 22" cx="6" cy="6" r="6" transform="translate(9989 -3898)" fill="#fff"/>
    <circle id="Ellipse_23" data-name="Ellipse 23" cx="6.5" cy="6.5" r="6.5" transform="translate(9979 -3878)" fill="#fff"/>
    <ellipse id="Ellipse_24" data-name="Ellipse 24" cx="6" cy="6.5" rx="6" ry="6.5" transform="translate(9969 -3858)" fill="#fff"/>
    <circle id="Ellipse_25" data-name="Ellipse 25" cx="6.5" cy="6.5" r="6.5" transform="translate(9956 -3838)" fill="#fff"/>
    <circle id="Ellipse_26" data-name="Ellipse 26" cx="6" cy="6" r="6" transform="translate(9933 -3839)" fill="#fff"/>
    <circle id="Ellipse_27" data-name="Ellipse 27" cx="6" cy="6" r="6" transform="translate(9910 -3839)" fill="#fff"/>
    <ellipse id="Ellipse_28" data-name="Ellipse 28" cx="6.5" cy="6" rx="6.5" ry="6" transform="translate(9888 -3839)" fill="#fff"/>
    <ellipse id="Ellipse_29" data-name="Ellipse 29" cx="6.5" cy="6" rx="6.5" ry="6" transform="translate(9877 -3819)" fill="#fff"/>
    <circle id="Ellipse_90" data-name="Ellipse 90" cx="6" cy="6" r="6" transform="translate(9868 -3797)" fill="#fff"/>
    <ellipse id="Ellipse_104" data-name="Ellipse 104" cx="6.5" cy="6" rx="6.5" ry="6" transform="translate(9874 -3780)" fill="#fff"/>
    <ellipse id="Ellipse_118" data-name="Ellipse 118" cx="6" cy="6.5" rx="6" ry="6.5" transform="translate(9865 -3762)" fill="#fff"/>
    <ellipse id="Ellipse_132" data-name="Ellipse 132" cx="6.5" cy="6" rx="6.5" ry="6" transform="translate(9880 -3743)" fill="#fff"/>
    <ellipse id="Ellipse_146" data-name="Ellipse 146" cx="6" cy="6.5" rx="6" ry="6.5" transform="translate(9867 -3722)" fill="#fff"/>
    <ellipse id="Ellipse_160" data-name="Ellipse 160" cx="6.5" cy="6" rx="6.5" ry="6" transform="translate(9877 -3703)" fill="#fff"/>
    <circle id="Ellipse_174" data-name="Ellipse 174" cx="6" cy="6" r="6" transform="translate(9890 -3681)" fill="#fff"/>
    <ellipse id="Ellipse_34" data-name="Ellipse 34" cx="6.5" cy="6" rx="6.5" ry="6" transform="translate(9945 -3819)" fill="#fff"/>
    <circle id="Ellipse_87" data-name="Ellipse 87" cx="6" cy="6" r="6" transform="translate(9936 -3797)" fill="#fff"/>
    <ellipse id="Ellipse_101" data-name="Ellipse 101" cx="6.5" cy="6" rx="6.5" ry="6" transform="translate(9942 -3780)" fill="#fff"/>
    <ellipse id="Ellipse_115" data-name="Ellipse 115" cx="6" cy="6.5" rx="6" ry="6.5" transform="translate(9933 -3762)" fill="#fff"/>
    <ellipse id="Ellipse_129" data-name="Ellipse 129" cx="6.5" cy="6" rx="6.5" ry="6" transform="translate(9948 -3743)" fill="#fff"/>
    <ellipse id="Ellipse_143" data-name="Ellipse 143" cx="6" cy="6.5" rx="6" ry="6.5" transform="translate(9935 -3722)" fill="#fff"/>
    <ellipse id="Ellipse_157" data-name="Ellipse 157" cx="6.5" cy="6" rx="6.5" ry="6" transform="translate(9945 -3703)" fill="#fff"/>
    <circle id="Ellipse_171" data-name="Ellipse 171" cx="6" cy="6" r="6" transform="translate(9958 -3681)" fill="#fff"/>
    <circle id="Ellipse_37" data-name="Ellipse 37" cx="6" cy="6" r="6" transform="translate(10012 -3819)" fill="#fff"/>
    <circle id="Ellipse_84" data-name="Ellipse 84" cx="6" cy="6" r="6" transform="translate(10003 -3797)" fill="#fff"/>
    <circle id="Ellipse_98" data-name="Ellipse 98" cx="6" cy="6" r="6" transform="translate(10009 -3780)" fill="#fff"/>
    <circle id="Ellipse_112" data-name="Ellipse 112" cx="6.5" cy="6.5" r="6.5" transform="translate(9999 -3762)" fill="#fff"/>
    <circle id="Ellipse_126" data-name="Ellipse 126" cx="6" cy="6" r="6" transform="translate(10015 -3743)" fill="#fff"/>
    <ellipse id="Ellipse_140" data-name="Ellipse 140" cx="6" cy="6.5" rx="6" ry="6.5" transform="translate(10001 -3722)" fill="#fff"/>
    <circle id="Ellipse_154" data-name="Ellipse 154" cx="6" cy="6" r="6" transform="translate(10012 -3703)" fill="#fff"/>
    <ellipse id="Ellipse_168" data-name="Ellipse 168" cx="6.5" cy="6" rx="6.5" ry="6" transform="translate(10024 -3681)" fill="#fff"/>
    <circle id="Ellipse_40" data-name="Ellipse 40" cx="6" cy="6" r="6" transform="translate(10080 -3819)" fill="#fff"/>
    <circle id="Ellipse_81" data-name="Ellipse 81" cx="6" cy="6" r="6" transform="translate(10071 -3797)" fill="#fff"/>
    <circle id="Ellipse_95" data-name="Ellipse 95" cx="6" cy="6" r="6" transform="translate(10077 -3780)" fill="#fff"/>
    <ellipse id="Ellipse_109" data-name="Ellipse 109" cx="6" cy="6.5" rx="6" ry="6.5" transform="translate(10068 -3762)" fill="#fff"/>
    <circle id="Ellipse_123" data-name="Ellipse 123" cx="6" cy="6" r="6" transform="translate(10083 -3743)" fill="#fff"/>
    <ellipse id="Ellipse_137" data-name="Ellipse 137" cx="6" cy="6.5" rx="6" ry="6.5" transform="translate(10069 -3722)" fill="#fff"/>
    <circle id="Ellipse_151" data-name="Ellipse 151" cx="6" cy="6" r="6" transform="translate(10080 -3703)" fill="#fff"/>
    <ellipse id="Ellipse_165" data-name="Ellipse 165" cx="6.5" cy="6" rx="6.5" ry="6" transform="translate(10092 -3681)" fill="#fff"/>
    <circle id="Ellipse_43" data-name="Ellipse 43" cx="6" cy="6" r="6" transform="translate(10145 -3819)" fill="#fff"/>
    <circle id="Ellipse_78" data-name="Ellipse 78" cx="6" cy="6" r="6" transform="translate(10136 -3797)" fill="#fff"/>
    <circle id="Ellipse_92" data-name="Ellipse 92" cx="6" cy="6" r="6" transform="translate(10142 -3780)" fill="#fff"/>
    <circle id="Ellipse_106" data-name="Ellipse 106" cx="6.5" cy="6.5" r="6.5" transform="translate(10132 -3762)" fill="#fff"/>
    <circle id="Ellipse_120" data-name="Ellipse 120" cx="6" cy="6" r="6" transform="translate(10148 -3743)" fill="#fff"/>
    <ellipse id="Ellipse_134" data-name="Ellipse 134" cx="6" cy="6.5" rx="6" ry="6.5" transform="translate(10134 -3722)" fill="#fff"/>
    <circle id="Ellipse_148" data-name="Ellipse 148" cx="6" cy="6" r="6" transform="translate(10145 -3703)" fill="#fff"/>
    <ellipse id="Ellipse_162" data-name="Ellipse 162" cx="6.5" cy="6" rx="6.5" ry="6" transform="translate(10157 -3681)" fill="#fff"/>
    <circle id="Ellipse_46" data-name="Ellipse 46" cx="6.5" cy="6.5" r="6.5" transform="translate(10112 -3838)" fill="#fff"/>
    <circle id="Ellipse_55" data-name="Ellipse 55" cx="6" cy="6" r="6" transform="translate(10102 -3859)" fill="#fff"/>
    <ellipse id="Ellipse_49" data-name="Ellipse 49" cx="6" cy="6.5" rx="6" ry="6.5" transform="translate(10046 -3838)" fill="#fff"/>
    <ellipse id="Ellipse_60" data-name="Ellipse 60" cx="6" cy="6.5" rx="6" ry="6.5" transform="translate(10037 -3858)" fill="#fff"/>
    <circle id="Ellipse_63" data-name="Ellipse 63" cx="6.5" cy="6.5" r="6.5" transform="translate(10044 -3878)" fill="#fff"/>
    <ellipse id="Ellipse_66" data-name="Ellipse 66" cx="6" cy="6.5" rx="6" ry="6.5" transform="translate(10111 -3878)" fill="#fff"/>
    <circle id="Ellipse_69" data-name="Ellipse 69" cx="6" cy="6" r="6" transform="translate(10066 -3918)" fill="#fff"/>
    <ellipse id="Ellipse_72" data-name="Ellipse 72" cx="6.5" cy="6" rx="6.5" ry="6" transform="translate(10055 -3898)" fill="#fff"/>
    <circle id="Ellipse_75" data-name="Ellipse 75" cx="6" cy="6" r="6" transform="translate(10122 -3898)" fill="#fff"/>
    <ellipse id="Ellipse_76" data-name="Ellipse 76" cx="6" cy="6.5" rx="6" ry="6.5" transform="translate(10137 -3878)" fill="#fff"/>
    <ellipse id="Ellipse_52" data-name="Ellipse 52" cx="6" cy="6.5" rx="6" ry="6.5" transform="translate(9978 -3838)" fill="#fff"/>
    <circle id="Ellipse_30" data-name="Ellipse 30" cx="6" cy="6" r="6" transform="translate(9902 -3819)" fill="#fff"/>
    <circle id="Ellipse_89" data-name="Ellipse 89" cx="6" cy="6" r="6" transform="translate(9893 -3797)" fill="#fff"/>
    <circle id="Ellipse_103" data-name="Ellipse 103" cx="6" cy="6" r="6" transform="translate(9899 -3780)" fill="#fff"/>
    <ellipse id="Ellipse_117" data-name="Ellipse 117" cx="6" cy="6.5" rx="6" ry="6.5" transform="translate(9890 -3762)" fill="#fff"/>
    <ellipse id="Ellipse_131" data-name="Ellipse 131" cx="6.5" cy="6" rx="6.5" ry="6" transform="translate(9905 -3743)" fill="#fff"/>
    <circle id="Ellipse_145" data-name="Ellipse 145" cx="6.5" cy="6.5" r="6.5" transform="translate(9891 -3722)" fill="#fff"/>
    <circle id="Ellipse_159" data-name="Ellipse 159" cx="6" cy="6" r="6" transform="translate(9902 -3703)" fill="#fff"/>
    <ellipse id="Ellipse_173" data-name="Ellipse 173" cx="6.5" cy="6" rx="6.5" ry="6" transform="translate(9914 -3681)" fill="#fff"/>
    <circle id="Ellipse_33" data-name="Ellipse 33" cx="6" cy="6" r="6" transform="translate(9970 -3819)" fill="#fff"/>
    <circle id="Ellipse_86" data-name="Ellipse 86" cx="6" cy="6" r="6" transform="translate(9961 -3797)" fill="#fff"/>
    <circle id="Ellipse_100" data-name="Ellipse 100" cx="6" cy="6" r="6" transform="translate(9967 -3780)" fill="#fff"/>
    <ellipse id="Ellipse_114" data-name="Ellipse 114" cx="6" cy="6.5" rx="6" ry="6.5" transform="translate(9958 -3762)" fill="#fff"/>
    <ellipse id="Ellipse_128" data-name="Ellipse 128" cx="6.5" cy="6" rx="6.5" ry="6" transform="translate(9973 -3743)" fill="#fff"/>
    <circle id="Ellipse_142" data-name="Ellipse 142" cx="6.5" cy="6.5" r="6.5" transform="translate(9959 -3722)" fill="#fff"/>
    <circle id="Ellipse_156" data-name="Ellipse 156" cx="6" cy="6" r="6" transform="translate(9970 -3703)" fill="#fff"/>
    <ellipse id="Ellipse_170" data-name="Ellipse 170" cx="6.5" cy="6" rx="6.5" ry="6" transform="translate(9982 -3681)" fill="#fff"/>
    <circle id="Ellipse_36" data-name="Ellipse 36" cx="6" cy="6" r="6" transform="translate(10037 -3819)" fill="#fff"/>
    <ellipse id="Ellipse_83" data-name="Ellipse 83" cx="6.5" cy="6" rx="6.5" ry="6" transform="translate(10027 -3797)" fill="#fff"/>
    <circle id="Ellipse_97" data-name="Ellipse 97" cx="6" cy="6" r="6" transform="translate(10034 -3780)" fill="#fff"/>
    <circle id="Ellipse_111" data-name="Ellipse 111" cx="6.5" cy="6.5" r="6.5" transform="translate(10024 -3762)" fill="#fff"/>
    <circle id="Ellipse_125" data-name="Ellipse 125" cx="6" cy="6" r="6" transform="translate(10040 -3743)" fill="#fff"/>
    <ellipse id="Ellipse_139" data-name="Ellipse 139" cx="6" cy="6.5" rx="6" ry="6.5" transform="translate(10026 -3722)" fill="#fff"/>
    <circle id="Ellipse_153" data-name="Ellipse 153" cx="6" cy="6" r="6" transform="translate(10037 -3703)" fill="#fff"/>
    <circle id="Ellipse_167" data-name="Ellipse 167" cx="6" cy="6" r="6" transform="translate(10049 -3681)" fill="#fff"/>
    <circle id="Ellipse_39" data-name="Ellipse 39" cx="6" cy="6" r="6" transform="translate(10105 -3819)" fill="#fff"/>
    <ellipse id="Ellipse_80" data-name="Ellipse 80" cx="6.5" cy="6" rx="6.5" ry="6" transform="translate(10095 -3797)" fill="#fff"/>
    <circle id="Ellipse_94" data-name="Ellipse 94" cx="6" cy="6" r="6" transform="translate(10102 -3780)" fill="#fff"/>
    <circle id="Ellipse_108" data-name="Ellipse 108" cx="6.5" cy="6.5" r="6.5" transform="translate(10092 -3762)" fill="#fff"/>
    <circle id="Ellipse_122" data-name="Ellipse 122" cx="6" cy="6" r="6" transform="translate(10108 -3743)" fill="#fff"/>
    <ellipse id="Ellipse_136" data-name="Ellipse 136" cx="6" cy="6.5" rx="6" ry="6.5" transform="translate(10094 -3722)" fill="#fff"/>
    <circle id="Ellipse_150" data-name="Ellipse 150" cx="6" cy="6" r="6" transform="translate(10105 -3703)" fill="#fff"/>
    <circle id="Ellipse_164" data-name="Ellipse 164" cx="6" cy="6" r="6" transform="translate(10117 -3681)" fill="#fff"/>
    <circle id="Ellipse_42" data-name="Ellipse 42" cx="6" cy="6" r="6" transform="translate(10170 -3819)" fill="#fff"/>
    <ellipse id="Ellipse_77" data-name="Ellipse 77" cx="6.5" cy="6" rx="6.5" ry="6" transform="translate(10160 -3797)" fill="#fff"/>
    <ellipse id="Ellipse_91" data-name="Ellipse 91" cx="6.5" cy="6" rx="6.5" ry="6" transform="translate(10166 -3780)" fill="#fff"/>
    <circle id="Ellipse_105" data-name="Ellipse 105" cx="6.5" cy="6.5" r="6.5" transform="translate(10157 -3762)" fill="#fff"/>
    <circle id="Ellipse_119" data-name="Ellipse 119" cx="6" cy="6" r="6" transform="translate(10173 -3743)" fill="#fff"/>
    <ellipse id="Ellipse_133" data-name="Ellipse 133" cx="6" cy="6.5" rx="6" ry="6.5" transform="translate(10159 -3722)" fill="#fff"/>
    <circle id="Ellipse_147" data-name="Ellipse 147" cx="6" cy="6" r="6" transform="translate(10170 -3703)" fill="#fff"/>
    <circle id="Ellipse_161" data-name="Ellipse 161" cx="6" cy="6" r="6" transform="translate(10182 -3681)" fill="#fff"/>
    <ellipse id="Ellipse_45" data-name="Ellipse 45" cx="6" cy="6.5" rx="6" ry="6.5" transform="translate(10137 -3838)" fill="#fff"/>
    <ellipse id="Ellipse_54" data-name="Ellipse 54" cx="6.5" cy="6" rx="6.5" ry="6" transform="translate(10126 -3859)" fill="#fff"/>
    <ellipse id="Ellipse_48" data-name="Ellipse 48" cx="6" cy="6.5" rx="6" ry="6.5" transform="translate(10071 -3838)" fill="#fff"/>
    <circle id="Ellipse_57" data-name="Ellipse 57" cx="6" cy="6" r="6" transform="translate(10060 -3859)" fill="#fff"/>
    <ellipse id="Ellipse_51" data-name="Ellipse 51" cx="6" cy="6.5" rx="6" ry="6.5" transform="translate(10003 -3838)" fill="#fff"/>
    <circle id="Ellipse_58" data-name="Ellipse 58" cx="6.5" cy="6.5" r="6.5" transform="translate(9993 -3858)" fill="#fff"/>
    <ellipse id="Ellipse_61" data-name="Ellipse 61" cx="6" cy="6.5" rx="6" ry="6.5" transform="translate(10001 -3878)" fill="#fff"/>
    <ellipse id="Ellipse_64" data-name="Ellipse 64" cx="6" cy="6.5" rx="6" ry="6.5" transform="translate(10068 -3878)" fill="#fff"/>
    <circle id="Ellipse_67" data-name="Ellipse 67" cx="6" cy="6" r="6" transform="translate(10023 -3918)" fill="#fff"/>
    <circle id="Ellipse_70" data-name="Ellipse 70" cx="6" cy="6" r="6" transform="translate(10012 -3898)" fill="#fff"/>
    <ellipse id="Ellipse_73" data-name="Ellipse 73" cx="6.5" cy="6" rx="6.5" ry="6" transform="translate(10078 -3898)" fill="#fff"/>
    <ellipse id="Ellipse_31" data-name="Ellipse 31" cx="6.5" cy="6" rx="6.5" ry="6" transform="translate(9922 -3819)" fill="#fff"/>
    <circle id="Ellipse_88" data-name="Ellipse 88" cx="6" cy="6" r="6" transform="translate(9913 -3797)" fill="#fff"/>
    <circle id="Ellipse_102" data-name="Ellipse 102" cx="6" cy="6" r="6" transform="translate(9919 -3780)" fill="#fff"/>
    <ellipse id="Ellipse_116" data-name="Ellipse 116" cx="6" cy="6.5" rx="6" ry="6.5" transform="translate(9910 -3762)" fill="#fff"/>
    <ellipse id="Ellipse_130" data-name="Ellipse 130" cx="6.5" cy="6" rx="6.5" ry="6" transform="translate(9925 -3743)" fill="#fff"/>
    <circle id="Ellipse_144" data-name="Ellipse 144" cx="6.5" cy="6.5" r="6.5" transform="translate(9911 -3722)" fill="#fff"/>
    <ellipse id="Ellipse_158" data-name="Ellipse 158" cx="6.5" cy="6" rx="6.5" ry="6" transform="translate(9922 -3703)" fill="#fff"/>
    <circle id="Ellipse_172" data-name="Ellipse 172" cx="6" cy="6" r="6" transform="translate(9935 -3681)" fill="#fff"/>
    <ellipse id="Ellipse_32" data-name="Ellipse 32" cx="6.5" cy="6" rx="6.5" ry="6" transform="translate(9990 -3819)" fill="#fff"/>
    <circle id="Ellipse_85" data-name="Ellipse 85" cx="6" cy="6" r="6" transform="translate(9981 -3797)" fill="#fff"/>
    <circle id="Ellipse_99" data-name="Ellipse 99" cx="6" cy="6" r="6" transform="translate(9987 -3780)" fill="#fff"/>
    <ellipse id="Ellipse_113" data-name="Ellipse 113" cx="6" cy="6.5" rx="6" ry="6.5" transform="translate(9978 -3762)" fill="#fff"/>
    <ellipse id="Ellipse_127" data-name="Ellipse 127" cx="6.5" cy="6" rx="6.5" ry="6" transform="translate(9993 -3743)" fill="#fff"/>
    <circle id="Ellipse_141" data-name="Ellipse 141" cx="6.5" cy="6.5" r="6.5" transform="translate(9979 -3722)" fill="#fff"/>
    <ellipse id="Ellipse_155" data-name="Ellipse 155" cx="6.5" cy="6" rx="6.5" ry="6" transform="translate(9990 -3703)" fill="#fff"/>
    <circle id="Ellipse_169" data-name="Ellipse 169" cx="6" cy="6" r="6" transform="translate(10003 -3681)" fill="#fff"/>
    <circle id="Ellipse_35" data-name="Ellipse 35" cx="6" cy="6" r="6" transform="translate(10057 -3819)" fill="#fff"/>
    <ellipse id="Ellipse_82" data-name="Ellipse 82" cx="6.5" cy="6" rx="6.5" ry="6" transform="translate(10047 -3797)" fill="#fff"/>
    <circle id="Ellipse_96" data-name="Ellipse 96" cx="6" cy="6" r="6" transform="translate(10054 -3780)" fill="#fff"/>
    <circle id="Ellipse_110" data-name="Ellipse 110" cx="6.5" cy="6.5" r="6.5" transform="translate(10044 -3762)" fill="#fff"/>
    <circle id="Ellipse_124" data-name="Ellipse 124" cx="6" cy="6" r="6" transform="translate(10060 -3743)" fill="#fff"/>
    <ellipse id="Ellipse_138" data-name="Ellipse 138" cx="6" cy="6.5" rx="6" ry="6.5" transform="translate(10046 -3722)" fill="#fff"/>
    <circle id="Ellipse_152" data-name="Ellipse 152" cx="6" cy="6" r="6" transform="translate(10057 -3703)" fill="#fff"/>
    <circle id="Ellipse_166" data-name="Ellipse 166" cx="6" cy="6" r="6" transform="translate(10069 -3681)" fill="#fff"/>
    <circle id="Ellipse_38" data-name="Ellipse 38" cx="6" cy="6" r="6" transform="translate(10125 -3819)" fill="#fff"/>
    <ellipse id="Ellipse_79" data-name="Ellipse 79" cx="6.5" cy="6" rx="6.5" ry="6" transform="translate(10115 -3797)" fill="#fff"/>
    <circle id="Ellipse_93" data-name="Ellipse 93" cx="6" cy="6" r="6" transform="translate(10122 -3780)" fill="#fff"/>
    <circle id="Ellipse_107" data-name="Ellipse 107" cx="6.5" cy="6.5" r="6.5" transform="translate(10112 -3762)" fill="#fff"/>
    <circle id="Ellipse_121" data-name="Ellipse 121" cx="6" cy="6" r="6" transform="translate(10128 -3743)" fill="#fff"/>
    <ellipse id="Ellipse_135" data-name="Ellipse 135" cx="6" cy="6.5" rx="6" ry="6.5" transform="translate(10114 -3722)" fill="#fff"/>
    <circle id="Ellipse_149" data-name="Ellipse 149" cx="6" cy="6" r="6" transform="translate(10125 -3703)" fill="#fff"/>
    <circle id="Ellipse_163" data-name="Ellipse 163" cx="6" cy="6" r="6" transform="translate(10137 -3681)" fill="#fff"/>
    <circle id="Ellipse_41" data-name="Ellipse 41" cx="6" cy="6" r="6" transform="translate(10190 -3819)" fill="#fff"/>
    <circle id="Ellipse_44" data-name="Ellipse 44" cx="6.5" cy="6.5" r="6.5" transform="translate(10157 -3838)" fill="#fff"/>
    <ellipse id="Ellipse_53" data-name="Ellipse 53" cx="6.5" cy="6" rx="6.5" ry="6" transform="translate(10146 -3859)" fill="#fff"/>
    <ellipse id="Ellipse_47" data-name="Ellipse 47" cx="6" cy="6.5" rx="6" ry="6.5" transform="translate(10091 -3838)" fill="#fff"/>
    <circle id="Ellipse_56" data-name="Ellipse 56" cx="6" cy="6" r="6" transform="translate(10080 -3859)" fill="#fff"/>
    <ellipse id="Ellipse_50" data-name="Ellipse 50" cx="6" cy="6.5" rx="6" ry="6.5" transform="translate(10023 -3838)" fill="#fff"/>
    <circle id="Ellipse_59" data-name="Ellipse 59" cx="6.5" cy="6.5" r="6.5" transform="translate(10013 -3858)" fill="#fff"/>
    <circle id="Ellipse_62" data-name="Ellipse 62" cx="6.5" cy="6.5" r="6.5" transform="translate(10021 -3878)" fill="#fff"/>
    <ellipse id="Ellipse_65" data-name="Ellipse 65" cx="6" cy="6.5" rx="6" ry="6.5" transform="translate(10088 -3878)" fill="#fff"/>
    <circle id="Ellipse_68" data-name="Ellipse 68" cx="6" cy="6" r="6" transform="translate(10043 -3918)" fill="#fff"/>
    <circle id="Ellipse_71" data-name="Ellipse 71" cx="6" cy="6" r="6" transform="translate(10032 -3898)" fill="#fff"/>
    <ellipse id="Ellipse_74" data-name="Ellipse 74" cx="6.5" cy="6" rx="6.5" ry="6" transform="translate(10098 -3898)" fill="#fff"/>
  </g>
</svg>
