<svg xmlns="http://www.w3.org/2000/svg" width="79" height="68" viewBox="0 0 79 68">
  <g id="Icon" opacity="0.039">
    <path id="Path" d="M25.477,30.818a20.654,20.654,0,0,0-5.828-.87,17.966,17.966,0,0,0-7.308,1.531c1.837-6.879,6.25-18.749,15.041-20.086a2.105,2.105,0,0,0,1.7-1.537l1.921-7.029a2.176,2.176,0,0,0-.266-1.747A2.084,2.084,0,0,0,29.28.137,14.272,14.272,0,0,0,27.314,0C16.762,0,6.312,11.266,1.9,27.4-.686,36.86-1.445,51.088,4.931,60.044,8.5,65.055,13.7,67.731,20.4,68l.082,0A18.644,18.644,0,0,0,38.308,54.156a19.2,19.2,0,0,0-1.7-14.393A18.64,18.64,0,0,0,25.477,30.818Z"/>
    <path id="Path-2" data-name="Path" d="M36.611,39.763a18.638,18.638,0,0,0-11.134-8.946,20.653,20.653,0,0,0-5.827-.87,17.971,17.971,0,0,0-7.309,1.531C14.177,24.6,18.59,12.73,27.382,11.393a2.106,2.106,0,0,0,1.7-1.537l1.921-7.029a2.176,2.176,0,0,0-.266-1.747A2.081,2.081,0,0,0,29.28.137,14.254,14.254,0,0,0,27.314,0C16.763,0,6.312,11.266,1.9,27.4-.686,36.86-1.445,51.088,4.932,60.045,8.5,65.055,13.706,67.732,20.4,68l.083,0A18.645,18.645,0,0,0,38.309,54.156,19.21,19.21,0,0,0,36.611,39.763Z" transform="translate(40)"/>
  </g>
</svg>
