<svg xmlns="http://www.w3.org/2000/svg" width="143.376" height="24.81" viewBox="0 0 143.376 24.81">
  <g id="Group_2" data-name="Group 2" transform="translate(-770 -404.228)">
    <g id="Group_1" data-name="Group 1" transform="translate(770 405)">
      <path id="Path_1" data-name="Path 1" d="M791.461,407.091s13.655-.216,15.725.492,3.913.936,3.708,6.9-3.147,6.706-3.147,6.706H787.082s-4.479-.133-4.317-5.154-.648-12.133,0-13.523,1.879-1.579,3.563-1.457,3.01-.048,2.974,0a2.266,2.266,0,0,1,1.807,2.333v3.706Z" transform="translate(-779.819 -400.802)" fill="none" stroke="#fff" stroke-width="2"/>
      <path id="Path_2" data-name="Path 2" d="M805.739,502.328V499.4h-3.613Z" transform="translate(-795.215 -478.662)" fill="#fff"/>
      <path id="Path_3" data-name="Path 3" d="M879.146,499.4h3.613l-3.613,3.3Z" transform="translate(-855.666 -478.662)" fill="#fff"/>
      <path id="Path_4" data-name="Path 4" d="M766,400h3.526l-.079,2.9Z" transform="translate(-766 -400)" fill="#fff"/>
      <path id="Path_5" data-name="Path 5" d="M0,2.8H3.442L3.364,0Z" transform="translate(14.746 3.016) rotate(180)" fill="#fff"/>
      <path id="Path_6" data-name="Path 6" d="M798.215,415h2.336l-1.033,1.949Z" transform="translate(-792.145 -411.773)" fill="#fff"/>
    </g>
    <text id="NATURLAMB" transform="translate(804.376 422.227)" fill="#fff" font-size="21" font-family="Sitka Banner"><tspan x="0" y="0">NATURLAMB</tspan></text>
  </g>
</svg>
