<svg xmlns="http://www.w3.org/2000/svg" width="23.158" height="22.985" viewBox="0 0 23.158 22.985">
  <g id="Group_9" data-name="Group 9" transform="translate(0.906 1.044)">
    <path id="Stroke_7" data-name="Stroke 7" d="M1.1,21.821A1.164,1.164,0,0,1-.064,20.657V0A1.164,1.164,0,0,1,1.1-1.164,1.164,1.164,0,0,1,2.264,0V20.657A1.164,1.164,0,0,1,1.1,21.821Z" transform="translate(9.572 0.12)" fill="#ff969c"/>
    <path id="Stroke_8" data-name="Stroke 8" d="M20.83,2.255H0A1.164,1.164,0,0,1-1.164,1.091,1.164,1.164,0,0,1,0-.073H20.83a1.164,1.164,0,0,1,0,2.328Z" transform="translate(0.258 9.357)" fill="#ff969c"/>
  </g>
</svg>
