<svg xmlns="http://www.w3.org/2000/svg" width="71.374" height="42.04" viewBox="0 0 71.374 42.04">
  <path id="area-floor-size" d="M9.08,14.991,35.348.161a1.25,1.25,0,0,1,1.23,0l26.246,14.96a1.252,1.252,0,0,1,.035,2.158L36.89,33.09a1.253,1.253,0,0,1-1.316-.007L8.981,17.195a1.255,1.255,0,0,1,.1-2.2ZM44.452,39.575A1.253,1.253,0,0,1,43.814,42l-4.22-1.115a1.253,1.253,0,0,1-.892-1.532l1.136-4.3a1.253,1.253,0,0,1,2.424.638l-.392,1.479L66.877,22.744,65.5,22.376a1.255,1.255,0,0,1,.648-2.424l4.3,1.151a1.255,1.255,0,0,1,.888,1.536l-1.129,4.216a1.255,1.255,0,0,1-2.424-.648l.347-1.3L43.256,39.258l1.2.316ZM28.408,42a1.255,1.255,0,1,1-.206-2.5l1.264-.107L3.271,23.733l.329,1.23a1.255,1.255,0,0,1-2.424.647L.047,21.4a1.255,1.255,0,0,1,.888-1.536l4.3-1.151a1.255,1.255,0,1,1,.648,2.424l-1.433.383,26.7,15.96-.121-1.426a1.255,1.255,0,0,1,2.5-.206l.376,4.432a1.257,1.257,0,0,1-1.147,1.355L28.408,42ZM35.956,2.69,12.115,16.149,36.232,30.558,59.738,16.247Z" transform="translate(-0.004 -0.001)" fill="#02582d"/>
</svg>
