<svg xmlns="http://www.w3.org/2000/svg" width="39.776" height="46.42" viewBox="0 0 39.776 46.42">
  <g id="kg-measure-weight" transform="translate(0.008)">
    <path id="Path_539" data-name="Path 539" d="M4.189,46.42H35.574c2.029,0,4.616-2.61,4.137-4.582L34.444,20.2C33.3,15.5,31.709,12.935,26.5,12.935H22.5a6.743,6.743,0,1,0-5.342,0H13.621c-5.187,0-7.367,2.916-8.436,7.389L.048,41.838C-.42,43.81,2.16,46.42,4.189,46.42Zm9.9-19.353h1.677v2.157l1.76-2.157H19.76l-1.987,2.142,2.078,3.562H17.784l-1.148-2.342-.873.952v1.39H14.086v-5.7Zm8.681,3.642V29.523h2.6v2.425a5.308,5.308,0,0,1-1.318.729,4.278,4.278,0,0,1-1.36.193,3.185,3.185,0,0,1-1.579-.348,2.3,2.3,0,0,1-.944-1.031,3.535,3.535,0,0,1-.336-1.572,3.447,3.447,0,0,1,.366-1.624,2.424,2.424,0,0,1,1.077-1.046,3.354,3.354,0,0,1,1.488-.276,4.027,4.027,0,0,1,1.349.17,1.723,1.723,0,0,1,.74.533,2.4,2.4,0,0,1,.442.914l-1.617.306a.93.93,0,0,0-.34-.495,1,1,0,0,0-.612-.174,1.071,1.071,0,0,0-.88.4,2.007,2.007,0,0,0-.329,1.273,2.061,2.061,0,0,0,.332,1.322,1.137,1.137,0,0,0,.926.4,1.679,1.679,0,0,0,.536-.083,2.882,2.882,0,0,0,.586-.291v-.533H22.767ZM19.881,20.063a9.746,9.746,0,1,1-9.746,9.746,9.746,9.746,0,0,1,9.746-9.746ZM19.824,3.933a2.811,2.811,0,1,1-2.811,2.811,2.81,2.81,0,0,1,2.811-2.811Z" transform="translate(0)" fill="#02582d" fill-rule="evenodd"/>
  </g>
</svg>
