<svg xmlns="http://www.w3.org/2000/svg" width="25.672" height="38.261" viewBox="0 0 25.672 38.261">
  <path id="measurement-vertical" d="M12.166,0H24.652a.835.835,0,0,1,.582.237l.025.025a.831.831,0,0,1,.234.579v36.58a.853.853,0,0,1-.237.582l-.04.037a.847.847,0,0,1-.564.221H12.166a.847.847,0,0,1-.582-.237l-.04-.04a.847.847,0,0,1-.221-.564V.841a.85.85,0,0,1,.237-.582l.022-.022A.838.838,0,0,1,12.166,0ZM23.921,4.923H17.98V3.347h5.941V1.576H12.9v35.11H23.921V34.914H20.645V33.339h3.276V31.579H17.98V30.023h5.941V28.248H20.645V26.691h3.276V24.91H17.98V23.353h5.941V21.584H20.645V20.027h3.276V18.253H17.98V16.677h5.941V14.921H20.645V13.345h3.276V11.589H17.98V10.014h5.941V8.254H20.645V6.682h3.276ZM7.349.072a1,1,0,0,1,0,2H.879a1,1,0,1,1,0-2Zm0,36.013a1,1,0,0,1,0,2.005H.879a1,1,0,1,1,0-2.005Zm.1-29.2a1,1,0,0,1-1.51,1.308L5.12,7.258V31.013l.816-.934a1,1,0,0,1,1.51,1.308L4.858,34.348a1,1,0,0,1-1.411.1l-.09-.093L.783,31.47a1,1,0,1,1,1.495-1.333l.822.934V7.2l-.825.934A1,1,0,0,1,.779,6.8l2.572-2.89.093-.09a1,1,0,0,1,1.411.1l2.572,2.97Z" transform="translate(0.179)" fill="#02582d"/>
</svg>
