<svg xmlns="http://www.w3.org/2000/svg" width="47.35" height="47.824" viewBox="0 0 47.35 47.824">
  <path id="textile" d="M.128,23.905h0v-.055a2.272,2.272,0,0,1,1.947-1.487c.479-.109.946-.214,1.032-1.624a4.427,4.427,0,0,1,.206-1.145v-.039a2.367,2.367,0,0,1,.576-.868A2.65,2.65,0,0,1,6.1,18.026a2.465,2.465,0,0,0,1.238-.183c.121-.07.148-.549.179-1.067a3.752,3.752,0,0,1,.732-2.457,3.092,3.092,0,0,1,2.539-.837c.565,0,1.094,0,1.211-.413a3.38,3.38,0,0,0,.035-1.051,2.977,2.977,0,0,1,.459-2.227,2.4,2.4,0,0,1,2.177-.779A2.079,2.079,0,0,0,16.181,8.6a.779.779,0,0,0,.191-.273.366.366,0,0,0,0-.195,2.663,2.663,0,0,1,.058-1.39,3.033,3.033,0,0,1,.744-1.211,3.162,3.162,0,0,1,2.231-.9,1.428,1.428,0,0,0,1.082-.389,2.788,2.788,0,0,0,.308-1.1,3.609,3.609,0,0,1,.565-1.733A4.018,4.018,0,0,1,22.941.24,2.126,2.126,0,0,1,24.5.2a.736.736,0,0,1,.21.1h0a.713.713,0,0,1,.276.292,3.574,3.574,0,0,1,.728,2.262c.023.5.043.857,1.437.9a3.968,3.968,0,0,1,1.137.183h.039a2.418,2.418,0,0,1,.892.533,2.608,2.608,0,0,1,.677,2.2,2.476,2.476,0,0,0,.179,1.242c.074.121.549.148,1.071.179a3.765,3.765,0,0,1,2.457.732,3.118,3.118,0,0,1,.837,2.539c0,.565,0,1.094.413,1.211A3.5,3.5,0,0,0,35.9,12.6a3.011,3.011,0,0,1,2.227.456,2.4,2.4,0,0,1,.779,2.18,2,2,0,0,0,.417,1.511.779.779,0,0,0,.276.191h.031a.315.315,0,0,0,.16,0,2.7,2.7,0,0,1,1.39.062,3.084,3.084,0,0,1,1.215.74,3.171,3.171,0,0,1,.892,2.235V20A1.468,1.468,0,0,0,43.623,21a3.457,3.457,0,0,0,.9.1c1.207.035,2.4.066,2.776,1.99a2.574,2.574,0,0,1-.6,2.18,4.19,4.19,0,0,1-1.966,1.25,1.557,1.557,0,0,0-.323,1.012,3.153,3.153,0,0,1-.9,2.235,2.955,2.955,0,0,1-1.211.74,2.624,2.624,0,0,1-1.39.062.362.362,0,0,0-.195,0,.825.825,0,0,0-.273.195,2.129,2.129,0,0,0-.417,1.511,2.448,2.448,0,0,1-.779,2.177,2.978,2.978,0,0,1-2.231.456,3.5,3.5,0,0,0-1.051.039c-.389.117-.389.646-.413,1.211a3.068,3.068,0,0,1-.833,2.539,3.769,3.769,0,0,1-2.461.732c-.518.031-1,.058-1.067.175a2.531,2.531,0,0,0-.183,1.242,2.776,2.776,0,0,1-.662,2.212,2.527,2.527,0,0,1-.931.545,3.831,3.831,0,0,1-1.137.187c-1.394.035-1.413.389-1.441.9a3.531,3.531,0,0,1-.864,2.433,2.215,2.215,0,0,1-1.133.693,3.076,3.076,0,0,1-1.339.023,2.807,2.807,0,0,1-1.086-.347,2.468,2.468,0,0,1-.67-.572.736.736,0,0,1-.284-.635.709.709,0,0,1,.031-.2,1.6,1.6,0,0,0,0-.619.751.751,0,0,0-.241-.389,2.282,2.282,0,0,0-1.538-.5c-1.289-.066-2.215-.117-2.289-2.873a2.336,2.336,0,0,0-.109-.7v-.027A1,1,0,0,0,17.1,40.6c-.21-.218-.658-.214-1.125-.206a3.578,3.578,0,0,1-2.009-.389c-.779-.471-.841-1.324-.9-2.25a2.758,2.758,0,0,0-.358-1.557,2.107,2.107,0,0,0-1.464-.35c-1.125,0-2.177-.031-2.6-1.46a4.431,4.431,0,0,1-.093-1.557,2.085,2.085,0,0,0-.125-1.207c-.179-.214-.615-.249-1.063-.257a3.229,3.229,0,0,1-2.5-.818,2.227,2.227,0,0,1-.584-.853l-.023-.078a1.744,1.744,0,0,1-.039-.931,1.145,1.145,0,0,0-.039-.611,1.593,1.593,0,0,0-.389-.619,1.978,1.978,0,0,0-1.332-.467h0A2.483,2.483,0,0,1,.342,25.984a.561.561,0,0,1-.09-.164,3.711,3.711,0,0,1-.164-.483A2.418,2.418,0,0,1,0,24.781a2.336,2.336,0,0,1,.023-.463v-.027a2.546,2.546,0,0,1,.1-.389Zm33.929,2.617a1.145,1.145,0,1,0,.81-.336,1.145,1.145,0,0,0-.81.336Zm2.694-2.694a1.145,1.145,0,1,0,.81-.336,1.145,1.145,0,0,0-.81.336Zm-5.346,5.361a1.145,1.145,0,1,1-.336.81A1.145,1.145,0,0,1,31.405,29.189Zm-2.694,2.694a1.145,1.145,0,1,1-.336.81A1.145,1.145,0,0,1,28.711,31.883Zm-2.7,2.694a1.145,1.145,0,1,1-.336.81A1.145,1.145,0,0,1,26.013,34.578Zm-2.694,2.694a1.145,1.145,0,1,1,0,1.62A1.168,1.168,0,0,1,23.318,37.272ZM30.5,22.979a1.145,1.145,0,1,0,.81-.336A1.145,1.145,0,0,0,30.5,22.979Zm2.694-2.687a1.145,1.145,0,1,0,.81-.336,1.145,1.145,0,0,0-.81.336ZM27.847,25.63a1.145,1.145,0,1,1-.336.81,1.145,1.145,0,0,1,.336-.81Zm-2.694,2.694a1.145,1.145,0,1,1-.336.81,1.145,1.145,0,0,1,.336-.81Zm-2.7,2.694a1.145,1.145,0,1,1-.336.81,1.145,1.145,0,0,1,.336-.81ZM19.76,33.713a1.145,1.145,0,1,1,0,1.62,1.168,1.168,0,0,1,0-1.62Zm7.18-14.293a1.145,1.145,0,1,0,.81-.336A1.145,1.145,0,0,0,26.939,19.42Zm2.694-2.694a1.145,1.145,0,1,0,.81-.336A1.145,1.145,0,0,0,29.634,16.725Zm-5.346,5.346a1.145,1.145,0,1,1-.336.81,1.145,1.145,0,0,1,.336-.81Zm-2.694,2.694a1.145,1.145,0,1,1-.336.81A1.145,1.145,0,0,1,21.593,24.766ZM18.9,27.46a1.145,1.145,0,1,1-.336.81,1.145,1.145,0,0,1,.336-.81ZM16.2,30.154a1.145,1.145,0,1,1,0,1.62,1.168,1.168,0,0,1,0-1.62Zm7.18-14.293a1.145,1.145,0,1,0,.81-.336,1.145,1.145,0,0,0-.81.336Zm2.7-2.694a1.145,1.145,0,1,0,.81-.336A1.145,1.145,0,0,0,26.083,13.167Zm-5.354,5.346a1.145,1.145,0,1,1-.336.81,1.145,1.145,0,0,1,.336-.81Zm-2.694,2.694a1.145,1.145,0,1,1-.336.81,1.145,1.145,0,0,1,.336-.81Zm-2.7,2.694a1.145,1.145,0,1,1-.336.81A1.145,1.145,0,0,1,15.336,23.9ZM12.642,26.6a1.145,1.145,0,1,1,0,1.62A1.168,1.168,0,0,1,12.642,26.6ZM19.822,12.3a1.145,1.145,0,1,0,.81-.336A1.145,1.145,0,0,0,19.822,12.3Zm2.694-2.694a1.145,1.145,0,1,0,.81-.336,1.145,1.145,0,0,0-.81.336ZM17.17,14.954a1.145,1.145,0,1,1-.336.81A1.145,1.145,0,0,1,17.17,14.954Zm-2.694,2.694a1.145,1.145,0,1,1-.336.81,1.145,1.145,0,0,1,.336-.81Zm-2.7,2.694a1.145,1.145,0,1,1-.336.81,1.145,1.145,0,0,1,.336-.81ZM9.083,23.037a1.145,1.145,0,1,1,0,1.62A1.168,1.168,0,0,1,9.083,23.037Zm14.8-21.516a.9.9,0,0,0-.421.082,2.243,2.243,0,0,0-.911.666,2.613,2.613,0,0,0-.3,1.075,3.773,3.773,0,0,1-.568,1.748A2.507,2.507,0,0,1,19.541,6.1a1.947,1.947,0,0,0-1.328.471,1.5,1.5,0,0,0-.389.619,1.168,1.168,0,0,0-.035.623,1.772,1.772,0,0,1-.058,1.012,2.184,2.184,0,0,1-.565.841,3.344,3.344,0,0,1-2.507.822c-.444,0-.86,0-1.059.253a1.99,1.99,0,0,0-.125,1.211,4.532,4.532,0,0,1-.093,1.557c-.424,1.425-1.476,1.441-2.6,1.456-.565,0-1.168,0-1.464.354a2.8,2.8,0,0,0-.362,1.557c-.051.927-.1,1.779-.892,2.251a3.605,3.605,0,0,1-2.009.389c-.467,0-.915,0-1.125.21h0a.86.86,0,0,0-.187.327v.031a2.9,2.9,0,0,0-.132.751c-.152,2.511-1.149,2.726-2.173,2.967a1.106,1.106,0,0,0-.9.58v.039a.6.6,0,0,0-.039.128h0a1.168,1.168,0,0,0,0,.164,1.3,1.3,0,0,0,.043.245,1.075,1.075,0,0,0,.062.21,1.48,1.48,0,0,0,1.02.347h0a3.168,3.168,0,0,1,2.231.9,3.01,3.01,0,0,1,.74,1.211,2.636,2.636,0,0,1,.062,1.394.35.35,0,0,0,0,.156v.035a.658.658,0,0,0,.191.273,2.151,2.151,0,0,0,1.511.421,2.388,2.388,0,0,1,2.177.779,2.989,2.989,0,0,1,.456,2.227,3.477,3.477,0,0,0,.039,1.051c.117.389.646.389,1.211.413a3.075,3.075,0,0,1,2.539.837,3.758,3.758,0,0,1,.732,2.457c.031.518.058,1,.175,1.067a2.488,2.488,0,0,0,1.242.183,2.764,2.764,0,0,1,2.208.662,2.531,2.531,0,0,1,.537.9v.039a3.8,3.8,0,0,1,.187,1.133c.035,1.394.389,1.413.9,1.441a3.539,3.539,0,0,1,2.437.868,2.2,2.2,0,0,1,.693,1.129,2.928,2.928,0,0,1,.07.989,1.2,1.2,0,0,0,.183.14,1.39,1.39,0,0,0,.53.16h.055a1.748,1.748,0,0,0,.74,0,.728.728,0,0,0,.389-.241,2.286,2.286,0,0,0,.506-1.557c.066-1.289.117-2.215,2.87-2.286a2.465,2.465,0,0,0,.7-.113,1,1,0,0,0,.389-.222c.222-.21.214-.658.21-1.125a3.606,3.606,0,0,1,.389-2.009c.471-.779,1.324-.841,2.25-.892a2.789,2.789,0,0,0,1.557-.362,2.107,2.107,0,0,0,.354-1.464c0-1.125.031-2.177,1.46-2.6a4.5,4.5,0,0,1,1.557-.093,2.1,2.1,0,0,0,1.211-.125c.214-.179.249-.615.253-1.063a3.218,3.218,0,0,1,.822-2.5,2.184,2.184,0,0,1,.841-.565,1.81,1.81,0,0,1,1.012-.058,1.168,1.168,0,0,0,.627-.035,1.557,1.557,0,0,0,.619-.389,1.974,1.974,0,0,0,.467-1.328A2.522,2.522,0,0,1,43.954,25.2a.779.779,0,0,1,.28-.125,2.725,2.725,0,0,0,1.347-.779,1.137,1.137,0,0,0,.284-.946c-.152-.779-.779-.779-1.374-.81a4.014,4.014,0,0,1-1.507-.234,1.055,1.055,0,0,1-.144-.082,2.5,2.5,0,0,1-1-2.118v-.019a1.974,1.974,0,0,0-.467-1.328,1.557,1.557,0,0,0-.619-.389,1.223,1.223,0,0,0-.627-.031,1.8,1.8,0,0,1-.934-.035l-.074-.023a2.169,2.169,0,0,1-.845-.565,3.271,3.271,0,0,1-.822-2.507c0-.444,0-.86-.253-1.063s-.716-.086-1.215-.086a4.509,4.509,0,0,1-1.557-.093c-1.429-.428-1.445-1.48-1.46-2.6,0-.565,0-1.168-.354-1.468a2.768,2.768,0,0,0-1.557-.358c-.931-.055-1.783-.1-2.251-.9a3.559,3.559,0,0,1-.382-1.982c0-.467,0-.919-.21-1.129a1,1,0,0,0-.362-.21h-.027a2.336,2.336,0,0,0-.7-.113c-2.757-.07-2.807-1-2.873-2.286a2.406,2.406,0,0,0-.389-1.386Z" transform="translate(0.007 -0.074)" fill="#02582d"/>
</svg>
