<svg id="wheel" xmlns="http://www.w3.org/2000/svg" width="47" height="47" viewBox="0 0 47 47">
  <path id="Path_540" data-name="Path 540" d="M23.5,8.315a15.188,15.188,0,1,1-10.736,4.448A15.126,15.126,0,0,1,23.5,8.315ZM23.5,0A23.506,23.506,0,1,1,6.885,6.885,23.413,23.413,0,0,1,23.5,0ZM35.751,11.249A17.323,17.323,0,1,0,40.827,23.5a17.269,17.269,0,0,0-5.076-12.251ZM25.034,21.714a2.179,2.179,0,0,0-3.068,0l0,0a2.179,2.179,0,0,0,0,3.068l0,0a2.179,2.179,0,0,0,3.068,0l0,0a2.162,2.162,0,0,0,.631-1.534,2.19,2.19,0,0,0-.635-1.538Zm-.149-2.287a4.11,4.11,0,0,1,1.488.949h0a3.774,3.774,0,0,1,.394.459l.038-.011,8.04-2.153a12.356,12.356,0,0,0-9.964-7.424v8.078a.313.313,0,0,1,0,.1Zm2.67,4.146a4.046,4.046,0,0,1-.6,1.821.525.525,0,0,1,.05.076l4.617,7.317c.207-.18.405-.367.6-.562A12.34,12.34,0,0,0,35.652,21.4l-8.1,2.169ZM24.7,27.137a4,4,0,0,1-1.2.18,4.09,4.09,0,0,1-1.086-.145L17.908,34.5a12.355,12.355,0,0,0,11.371-.1L24.7,27.137Zm-4.59-1.649a4,4,0,0,1-.65-1.8h0l-8.067-2.524a12.352,12.352,0,0,0,3.389,11.058c.241.241.493.474.757.7l4.513-7.34a.72.72,0,0,0,.061-.088Zm.057-4.559a3.967,3.967,0,0,1,.463-.551h0a4.135,4.135,0,0,1,1.419-.922c0-.042-.008-.088-.008-.13v-8.07a12.358,12.358,0,0,0-9.8,7.2l7.921,2.475Z" transform="translate(0 0)" fill="#02582d"/>
</svg>
