<svg xmlns="http://www.w3.org/2000/svg" width="47.039" height="43.169" viewBox="0 0 47.039 43.169">
  <path id="wooden-stool" d="M3.9,42.109a68.1,68.1,0,0,1,2.32-16.541,63.719,63.719,0,0,1,4.211-11.243H2.883A2.886,2.886,0,0,1,0,11.438V2.883A2.883,2.883,0,0,1,2.883,0H44.157a2.883,2.883,0,0,1,2.883,2.883v8.556a2.886,2.886,0,0,1-2.883,2.886H36.6a63.719,63.719,0,0,1,4.211,11.243,68.1,68.1,0,0,1,2.324,16.541h.635a.184.184,0,0,1,.184.184v.689a.188.188,0,0,1-.184.188H37.9a.188.188,0,0,1-.184-.188v-.689a.184.184,0,0,1,.184-.184h.536a63.883,63.883,0,0,0-.823-9.076H9.425A63.881,63.881,0,0,0,8.6,42.109h.536a.184.184,0,0,1,.184.184v.689a.188.188,0,0,1-.184.188H3.265a.188.188,0,0,1-.184-.188v-.689a.184.184,0,0,1,.184-.184ZM15.718,14.325A58.534,58.534,0,0,0,10.776,26.8c-.138.509-.272,1.018-.383,1.531H36.657c-.122-.513-.256-1.022-.383-1.531a58.535,58.535,0,0,0-4.953-12.472ZM2.883,2.883H44.157v8.556H2.883Z" fill="#02582d" fill-rule="evenodd"/>
</svg>
